<svg xmlns="http://www.w3.org/2000/svg" width="16.408" height="19.447" viewBox="0 0 16.408 19.447">
  <g id="copy-line" transform="translate(-4 -2)">
    <path id="Path_11" data-name="Path 11" d="M21.458,7H9.912A.912.912,0,0,0,9,7.912V22.5a.912.912,0,0,0,.912.912H21.458a.912.912,0,0,0,.912-.912V7.912A.912.912,0,0,0,21.458,7Zm-.3,15.193H10.215V8.215H21.154Z" transform="translate(-1.961 -1.961)" fill="#262d3d"/>
    <path id="Path_12" data-name="Path 12" d="M17.37,2.912A.912.912,0,0,0,16.458,2H4.912A.912.912,0,0,0,4,2.912V17.5a.912.912,0,0,0,.912.912h.3V3.215H17.37Z" fill="#262d3d"/>
  </g>
</svg>
