<svg xmlns="http://www.w3.org/2000/svg" width="25.985" height="26" viewBox="0 0 25.985 26">
  <g id="Group_65" data-name="Group 65" transform="translate(-1149.331 -32)">
    <g id="leaderboard" transform="translate(1133.349 12)">
      <path id="Path_18" data-name="Path 18" d="M41.891,20.271A.541.541,0,0,0,41.425,20H31.683a.541.541,0,0,0-.463.271L29.174,23.64l-2.465-3.415A.541.541,0,0,0,26.271,20H16.528a.541.541,0,0,0-.474.812L21.3,30.257a9.742,9.742,0,1,0,15.35,0L41.9,20.812A.541.541,0,0,0,41.891,20.271Zm-24.443.812H26l2.571,3.561L27.353,26.63a9.742,9.742,0,0,0-5.293,2.755ZM28.977,44.9a8.66,8.66,0,1,1,8.66-8.66A8.66,8.66,0,0,1,28.977,44.9Zm6.917-15.512a9.715,9.715,0,0,0-6.917-2.89h-.271l3.283-5.412h8.516Z" fill="#fff"/>
    </g>
    <g id="Toptal_Emblem_Blue_RGB" data-name="Toptal Emblem Blue RGB" transform="translate(1157.087 43)">
      <path id="Path_1" data-name="Path 1" d="M104.273,82.679,99.1,77.5l-1.2,1.2,1.758,1.76L95.8,84.3l5.188,5.2,1.187-1.182L100.4,86.54Zm-4.946,2.546a.174.174,0,0,1-.106,0,.278.278,0,0,1-.126-.09l-.7-.7a.27.27,0,0,1-.088-.128.174.174,0,0,1,0-.106.278.278,0,0,1,.09-.126l2.2-2.2a.27.27,0,0,1,.128-.088.174.174,0,0,1,.106,0,.278.278,0,0,1,.126.09l.7.7a.27.27,0,0,1,.088.128.174.174,0,0,1,0,.106.278.278,0,0,1-.09.126l-2.2,2.2A.292.292,0,0,1,99.327,85.225Z" transform="translate(-94.8 -78.5)" fill="#fff" fill-rule="evenodd"/>
    </g>
  </g>
</svg>
