<svg id="Toptal_Emblem_Blue_RGB" data-name="Toptal Emblem Blue RGB" xmlns="http://www.w3.org/2000/svg" width="16.946" height="24" viewBox="0 0 16.946 24">
  <path id="Path_1" data-name="Path 1" d="M112.746,87.859,102.4,77.5,100,79.891l3.516,3.521L95.8,91.106,106.176,101.5l2.374-2.365L105,95.579Zm-9.891,5.091a.347.347,0,0,1-.212,0,.556.556,0,0,1-.251-.181l-1.4-1.4a.541.541,0,0,1-.176-.256.347.347,0,0,1,0-.212.556.556,0,0,1,.181-.251l4.407-4.4a.541.541,0,0,1,.256-.176.347.347,0,0,1,.212,0,.555.555,0,0,1,.251.181l1.4,1.4a.541.541,0,0,1,.176.256.347.347,0,0,1,0,.212.555.555,0,0,1-.181.251l-4.407,4.4A.585.585,0,0,1,102.854,92.95Z" transform="translate(-95.8 -77.5)" fill="#fff" fill-rule="evenodd"/>
</svg>
